<mxfile host="app.diagrams.net" modified="2021-01-19T10:43:30.646Z" agent="5.0 (X11; Linux x86_64) AppleWebKit/537.36 (KHTML, like Gecko) Chrome/87.0.4280.141 Safari/537.36" etag="GiXqt6lH52YweUQWs6gY" version="14.2.4" type="github">
  <diagram id="C5RBs43oDa-KdzZeNtuy" name="Page-1">
    <mxGraphModel dx="1382" dy="1930" grid="1" gridSize="10" guides="1" tooltips="1" connect="1" arrows="1" fold="1" page="1" pageScale="1" pageWidth="827" pageHeight="1169" math="0" shadow="0">
      <root>
        <mxCell id="WIyWlLk6GJQsqaUBKTNV-0" />
        <mxCell id="WIyWlLk6GJQsqaUBKTNV-1" parent="WIyWlLk6GJQsqaUBKTNV-0" />
        <mxCell id="Qq_b6VsjAT3XlpnqzKfD-4" style="edgeStyle=orthogonalEdgeStyle;rounded=0;orthogonalLoop=1;jettySize=auto;html=1;entryX=0.558;entryY=0.033;entryDx=0;entryDy=0;entryPerimeter=0;" edge="1" parent="WIyWlLk6GJQsqaUBKTNV-1" source="Qq_b6VsjAT3XlpnqzKfD-0" target="Qq_b6VsjAT3XlpnqzKfD-1">
          <mxGeometry relative="1" as="geometry" />
        </mxCell>
        <mxCell id="Qq_b6VsjAT3XlpnqzKfD-0" value="从kafka读取多个topic数据" style="strokeWidth=2;html=1;shape=mxgraph.flowchart.start_1;whiteSpace=wrap;" vertex="1" parent="WIyWlLk6GJQsqaUBKTNV-1">
          <mxGeometry x="180" y="-70" width="100" height="60" as="geometry" />
        </mxCell>
        <mxCell id="Qq_b6VsjAT3XlpnqzKfD-10" style="edgeStyle=orthogonalEdgeStyle;rounded=0;orthogonalLoop=1;jettySize=auto;html=1;entryX=0.5;entryY=0;entryDx=0;entryDy=0;" edge="1" parent="WIyWlLk6GJQsqaUBKTNV-1" source="Qq_b6VsjAT3XlpnqzKfD-1" target="Qq_b6VsjAT3XlpnqzKfD-9">
          <mxGeometry relative="1" as="geometry" />
        </mxCell>
        <mxCell id="Qq_b6VsjAT3XlpnqzKfD-1" value="解析消息" style="rounded=1;whiteSpace=wrap;html=1;" vertex="1" parent="WIyWlLk6GJQsqaUBKTNV-1">
          <mxGeometry x="163" y="30" width="117" height="30" as="geometry" />
        </mxCell>
        <mxCell id="Qq_b6VsjAT3XlpnqzKfD-16" style="edgeStyle=orthogonalEdgeStyle;rounded=0;orthogonalLoop=1;jettySize=auto;html=1;entryX=0.5;entryY=0;entryDx=0;entryDy=0;" edge="1" parent="WIyWlLk6GJQsqaUBKTNV-1" source="Qq_b6VsjAT3XlpnqzKfD-9" target="Qq_b6VsjAT3XlpnqzKfD-15">
          <mxGeometry relative="1" as="geometry" />
        </mxCell>
        <mxCell id="Qq_b6VsjAT3XlpnqzKfD-35" style="edgeStyle=orthogonalEdgeStyle;rounded=0;orthogonalLoop=1;jettySize=auto;html=1;entryX=0.5;entryY=1;entryDx=0;entryDy=0;entryPerimeter=0;" edge="1" parent="WIyWlLk6GJQsqaUBKTNV-1" source="Qq_b6VsjAT3XlpnqzKfD-9" target="Qq_b6VsjAT3XlpnqzKfD-11">
          <mxGeometry relative="1" as="geometry">
            <Array as="points">
              <mxPoint x="130" y="150" />
              <mxPoint x="130" y="470" />
              <mxPoint x="489" y="470" />
            </Array>
          </mxGeometry>
        </mxCell>
        <mxCell id="Qq_b6VsjAT3XlpnqzKfD-9" value="消息是否有Route" style="rhombus;whiteSpace=wrap;html=1;" vertex="1" parent="WIyWlLk6GJQsqaUBKTNV-1">
          <mxGeometry x="146.5" y="110" width="150" height="80" as="geometry" />
        </mxCell>
        <mxCell id="Qq_b6VsjAT3XlpnqzKfD-11" value="结束" style="strokeWidth=2;html=1;shape=mxgraph.flowchart.terminator;whiteSpace=wrap;" vertex="1" parent="WIyWlLk6GJQsqaUBKTNV-1">
          <mxGeometry x="439" y="380" width="100" height="60" as="geometry" />
        </mxCell>
        <mxCell id="Qq_b6VsjAT3XlpnqzKfD-28" value="" style="edgeStyle=orthogonalEdgeStyle;rounded=0;orthogonalLoop=1;jettySize=auto;html=1;" edge="1" parent="WIyWlLk6GJQsqaUBKTNV-1" source="Qq_b6VsjAT3XlpnqzKfD-14" target="Qq_b6VsjAT3XlpnqzKfD-26">
          <mxGeometry relative="1" as="geometry" />
        </mxCell>
        <mxCell id="Qq_b6VsjAT3XlpnqzKfD-14" value="对Mobile消息去重" style="rounded=1;whiteSpace=wrap;html=1;" vertex="1" parent="WIyWlLk6GJQsqaUBKTNV-1">
          <mxGeometry x="429" y="80" width="120" height="60" as="geometry" />
        </mxCell>
        <mxCell id="Qq_b6VsjAT3XlpnqzKfD-20" style="edgeStyle=orthogonalEdgeStyle;rounded=0;orthogonalLoop=1;jettySize=auto;html=1;entryX=0.5;entryY=0;entryDx=0;entryDy=0;" edge="1" parent="WIyWlLk6GJQsqaUBKTNV-1" source="Qq_b6VsjAT3XlpnqzKfD-15" target="Qq_b6VsjAT3XlpnqzKfD-18">
          <mxGeometry relative="1" as="geometry" />
        </mxCell>
        <mxCell id="Qq_b6VsjAT3XlpnqzKfD-15" value="消息是否有配置&lt;br&gt;数据加工" style="rhombus;whiteSpace=wrap;html=1;" vertex="1" parent="WIyWlLk6GJQsqaUBKTNV-1">
          <mxGeometry x="146.5" y="230" width="150" height="80" as="geometry" />
        </mxCell>
        <mxCell id="Qq_b6VsjAT3XlpnqzKfD-17" value="是" style="text;html=1;align=center;verticalAlign=middle;resizable=0;points=[];autosize=1;" vertex="1" parent="WIyWlLk6GJQsqaUBKTNV-1">
          <mxGeometry x="225" y="200" width="30" height="20" as="geometry" />
        </mxCell>
        <mxCell id="Qq_b6VsjAT3XlpnqzKfD-33" style="edgeStyle=orthogonalEdgeStyle;rounded=0;orthogonalLoop=1;jettySize=auto;html=1;entryX=0.5;entryY=0;entryDx=0;entryDy=0;" edge="1" parent="WIyWlLk6GJQsqaUBKTNV-1" source="Qq_b6VsjAT3XlpnqzKfD-18" target="Qq_b6VsjAT3XlpnqzKfD-23">
          <mxGeometry relative="1" as="geometry" />
        </mxCell>
        <mxCell id="Qq_b6VsjAT3XlpnqzKfD-18" value="解析消息体" style="rounded=1;whiteSpace=wrap;html=1;" vertex="1" parent="WIyWlLk6GJQsqaUBKTNV-1">
          <mxGeometry x="162" y="370" width="120" height="60" as="geometry" />
        </mxCell>
        <mxCell id="Qq_b6VsjAT3XlpnqzKfD-21" value="是" style="text;html=1;align=center;verticalAlign=middle;resizable=0;points=[];autosize=1;" vertex="1" parent="WIyWlLk6GJQsqaUBKTNV-1">
          <mxGeometry x="215" y="330" width="30" height="20" as="geometry" />
        </mxCell>
        <mxCell id="Qq_b6VsjAT3XlpnqzKfD-25" style="edgeStyle=orthogonalEdgeStyle;rounded=0;orthogonalLoop=1;jettySize=auto;html=1;entryX=0.5;entryY=0;entryDx=0;entryDy=0;" edge="1" parent="WIyWlLk6GJQsqaUBKTNV-1" source="Qq_b6VsjAT3XlpnqzKfD-23" target="Qq_b6VsjAT3XlpnqzKfD-14">
          <mxGeometry relative="1" as="geometry" />
        </mxCell>
        <mxCell id="Qq_b6VsjAT3XlpnqzKfD-31" style="edgeStyle=orthogonalEdgeStyle;rounded=0;orthogonalLoop=1;jettySize=auto;html=1;entryX=1;entryY=0.5;entryDx=0;entryDy=0;" edge="1" parent="WIyWlLk6GJQsqaUBKTNV-1" source="Qq_b6VsjAT3XlpnqzKfD-23" target="Qq_b6VsjAT3XlpnqzKfD-26">
          <mxGeometry relative="1" as="geometry">
            <Array as="points">
              <mxPoint x="584" y="-10" />
              <mxPoint x="584" y="210" />
            </Array>
          </mxGeometry>
        </mxCell>
        <mxCell id="Qq_b6VsjAT3XlpnqzKfD-23" value="是否是Mobile消息" style="rhombus;whiteSpace=wrap;html=1;" vertex="1" parent="WIyWlLk6GJQsqaUBKTNV-1">
          <mxGeometry x="414" y="-50" width="150" height="80" as="geometry" />
        </mxCell>
        <mxCell id="Qq_b6VsjAT3XlpnqzKfD-29" style="edgeStyle=orthogonalEdgeStyle;rounded=0;orthogonalLoop=1;jettySize=auto;html=1;" edge="1" parent="WIyWlLk6GJQsqaUBKTNV-1" source="Qq_b6VsjAT3XlpnqzKfD-26" target="Qq_b6VsjAT3XlpnqzKfD-27">
          <mxGeometry relative="1" as="geometry" />
        </mxCell>
        <mxCell id="Qq_b6VsjAT3XlpnqzKfD-26" value="对消息进行ETL" style="rounded=1;whiteSpace=wrap;html=1;" vertex="1" parent="WIyWlLk6GJQsqaUBKTNV-1">
          <mxGeometry x="429" y="180" width="120" height="60" as="geometry" />
        </mxCell>
        <mxCell id="Qq_b6VsjAT3XlpnqzKfD-34" value="" style="edgeStyle=orthogonalEdgeStyle;rounded=0;orthogonalLoop=1;jettySize=auto;html=1;" edge="1" parent="WIyWlLk6GJQsqaUBKTNV-1" source="Qq_b6VsjAT3XlpnqzKfD-27" target="Qq_b6VsjAT3XlpnqzKfD-11">
          <mxGeometry relative="1" as="geometry" />
        </mxCell>
        <mxCell id="Qq_b6VsjAT3XlpnqzKfD-27" value="对消息进行Sink操作" style="rounded=1;whiteSpace=wrap;html=1;" vertex="1" parent="WIyWlLk6GJQsqaUBKTNV-1">
          <mxGeometry x="429" y="290" width="120" height="60" as="geometry" />
        </mxCell>
        <mxCell id="Qq_b6VsjAT3XlpnqzKfD-30" value="是" style="text;html=1;align=center;verticalAlign=middle;resizable=0;points=[];autosize=1;" vertex="1" parent="WIyWlLk6GJQsqaUBKTNV-1">
          <mxGeometry x="489" y="40" width="30" height="20" as="geometry" />
        </mxCell>
        <mxCell id="Qq_b6VsjAT3XlpnqzKfD-32" value="否" style="text;html=1;align=center;verticalAlign=middle;resizable=0;points=[];autosize=1;" vertex="1" parent="WIyWlLk6GJQsqaUBKTNV-1">
          <mxGeometry x="579" y="80" width="30" height="20" as="geometry" />
        </mxCell>
        <mxCell id="Qq_b6VsjAT3XlpnqzKfD-37" value="否" style="text;html=1;align=center;verticalAlign=middle;resizable=0;points=[];autosize=1;" vertex="1" parent="WIyWlLk6GJQsqaUBKTNV-1">
          <mxGeometry x="105" y="290" width="30" height="20" as="geometry" />
        </mxCell>
      </root>
    </mxGraphModel>
  </diagram>
</mxfile>
